<svg
    viewBox="0 0 169.33333 169.33333"
    aria-label="GitHub icon">
    <path
        d="M 17.008932,145.24256 V 60.575894 h 84.666658 84.66667 v 84.666666 84.66666 H 101.67559 17.008932 Z M 126.01435,194.8502 c 26.32178,-13.21521 37.63362,-44.00021 25.85993,-70.37744 -5.02103,-11.24888 -13.91133,-20.70095 -24.87124,-26.442823 -16.0758,-8.422087 -34.843669,-8.422087 -50.919477,0 -18.018596,9.439913 -29.48011,28.090143 -29.502351,48.006373 -0.02508,22.46534 14.024403,42.74678 35.306806,50.96789 2.432302,0.93956 3.510122,1.08104 4.200091,0.5513 0.913869,-0.70165 1.035405,-1.4365 1.035405,-6.26036 v -4.78221 l -1.521354,0.20075 c -2.653784,0.35018 -6.93887,0.20504 -8.990351,-0.30451 -4.134808,-1.02702 -6.5375,-3.12871 -8.784818,-7.68429 -1.759844,-3.56741 -3.254523,-5.44865 -5.588166,-7.0334 -1.784263,-1.21167 -2.367394,-1.93705 -2.367394,-2.94488 0,-1.11582 0.856845,-1.54363 3.091654,-1.54363 3.475667,0 6.374521,1.61579 8.691258,4.8444 0.646414,0.90084 1.504153,2.09519 1.906087,2.65412 0.928886,1.29168 2.868576,2.72225 4.641546,3.42325 1.942084,0.76786 4.768252,0.72692 7.186231,-0.10411 l 1.836566,-0.6312 0.350033,-1.56504 c 0.192519,-0.86077 0.705517,-2.22136 1.139994,-3.02354 0.43448,-0.80219 0.789964,-1.54106 0.789964,-1.64194 0,-0.10088 -0.697055,-0.26228 -1.549008,-0.35867 -4.045416,-0.45769 -9.390399,-2.37599 -12.634352,-4.53445 -6.601521,-4.39249 -9.893723,-11.85389 -9.893723,-22.42298 0,-6.08506 1.384416,-10.51574 4.536419,-14.51833 l 0.763169,-0.96912 -0.431427,-2.47046 c -0.524115,-3.00122 -0.370072,-6.37379 0.435179,-9.52764 0.863933,-3.3837 0.669626,-3.22113 3.653877,-3.05711 3.534336,0.19425 7.755065,1.78633 12.107243,4.56693 l 1.353005,0.86444 1.557412,-0.36885 c 6.591414,-1.56108 17.627812,-1.55968 24.281492,0.003 l 1.55741,0.36579 1.35301,-0.86444 c 4.363,-2.78751 8.57164,-4.37267 12.12799,-4.56793 l 2.57291,-0.14127 0.3028,0.76265 c 1.3638,3.43498 1.84149,8.23192 1.19143,11.96436 l -0.43026,2.47047 0.76317,0.96912 c 3.152,4.00258 4.53642,8.43326 4.53642,14.51832 0,10.11104 -3.13333,17.63701 -9.12214,21.91053 -3.33129,2.37716 -8.256,4.25299 -12.94582,4.93106 l -2.21046,0.3196 0.88219,1.60522 c 1.5549,2.82929 1.69212,3.98 1.69648,14.22662 0.003,6.26808 0.099,9.39059 0.30367,9.83971 0.16487,0.36184 0.66157,0.83313 1.10379,1.0473 0.74847,0.3625 0.96065,0.33412 3.07077,-0.41065 1.2467,-0.44004 3.75633,-1.54793 5.57694,-2.462 z"
        transform="translate(-17.008932,-60.575894)" 
        aria-label="GitHub icon path"
    />
</svg>
