<svg
    viewBox="0 0 338.66666 338.66666"
    aria-label="SoundCloud icon">
    <path
        d="M 55.79064,137.97025 V -31.363076 H 225.12397 394.4573 V 137.97025 307.30358 H 225.12397 55.79064 Z m 147.10833,40.76219 c 1.31785,-0.91812 1.35376,-1.18368 2.24255,-16.58441 l 0.28232,-14.52401 -0.27448,-30.20751 c -0.17736,-19.518483 -0.9365,-30.300266 -1.12191,-30.643126 -0.91873,-1.69901 -2.76761,-2.36136 -4.41256,-1.58079 -1.93376,0.91763 -1.76562,-1.11512 -2.61456,31.610986 l -0.3911,30.43648 0.31843,13.48435 c 0.18745,7.93782 0.75644,14.92524 0.83444,15.54302 0.33262,2.63419 3.03361,3.9303 5.13687,2.46501 z m 11.20886,0.41258 c 1.17631,-0.4915 1.96337,-1.55761 2.13722,-2.89496 0.0791,-0.60822 0.46043,-7.23757 0.84748,-14.7319 l -0.22232,-14.02292 0.19481,-35.32187 c 0.18118,-32.850998 -0.76958,-35.807706 -1.20775,-36.824436 -1.11967,-2.59807 -4.66164,-2.69815 -6.14038,-0.17351 -0.41869,0.71483 -0.51694,3.86254 -1.14158,36.574966 l -0.68347,35.79283 0.69409,14.57125 c 0.71478,15.00566 0.7553,15.35559 1.89816,16.38987 1.08646,0.98323 2.29325,1.19659 3.62374,0.64068 z m 121.09638,-0.005 c 5.09743,-0.8275 10.30409,-2.90356 14.46342,-5.76706 2.47684,-1.70518 6.10804,-5.24325 7.95835,-7.75426 1.73601,-2.3559 4.02492,-6.7944 4.91199,-9.525 2.79773,-8.6121 2.12359,-18.24019 -1.82629,-26.08386 -7.63633,-15.16415 -25.30893,-22.57719 -41.20402,-17.28365 -1.13436,0.37778 -2.21942,0.62664 -2.41125,0.55303 -0.21346,-0.0819 -0.42043,-0.83321 -0.53346,-1.93648 -0.27728,-2.7064 -1.40451,-7.77065 -2.41896,-10.86746 C 305.937,75.421564 282.79803,58.594754 256.553,58.594754 c -8.73205,0 -21.1316,2.81306 -24.00451,5.44584 l -0.94223,0.86348 -0.0755,55.252106 c -0.0415,30.38866 -0.007,55.63556 0.0767,56.10421 0.18941,1.06088 1.30174,2.41281 2.36692,2.87678 1.22482,0.53349 97.94422,0.53622 101.22982,0.003 z m -190.14755,-0.50183 c 0.73331,-0.73331 0.61331,0.28536 2.048,-17.38512 l 0.56653,-13.23581 -0.67696,-23.78079 c -0.70345,-24.711186 -1.24989,-24.01853 -2.65582,-24.659106 -0.76082,-0.34666 -1.86722,0.0589 -2.38941,0.875876 -0.30975,0.48461 -0.60963,5.29097 -1.48602,23.81751 l -0.3496,23.58457 0.335,14.51543 c 0.18945,8.20875 1.2144,15.21986 1.37458,15.62349 0.54123,1.36382 2.18624,1.69141 3.2337,0.64395 z m 11.53337,-0.0476 c 0.70207,-0.74732 0.65687,-0.32944 2.14738,-19.85105 l 0.30739,-10.90936 -0.55263,-28.38126 c -0.29912,-15.36176 -1.17508,-28.295336 -1.24985,-28.761976 -0.37667,-2.35081 -3.92229,-2.5631 -4.48823,-0.26872 -0.0798,0.32339 -0.60517,13.304916 -1.16755,28.847836 l -0.64834,28.54048 0.65468,14.5866 c 0.36751,8.18829 1.16498,15.19748 1.33134,15.60111 0.38019,0.92241 0.90516,1.23225 2.10519,1.24245 0.67111,0.006 1.12467,-0.18207 1.56062,-0.64611 z m 11.38805,-0.0734 c 0.97768,-0.88235 0.81061,0.49102 2.08915,-17.17324 l 0.25048,-13.23854 -0.24665,-29.35938 c -0.13314,-15.84785 -1.04231,-29.856546 -1.10013,-31.150196 -0.1008,-2.2552 -0.14002,-2.38326 -0.9521,-3.10885 -0.46583,-0.41622 -1.14865,-0.75676 -1.51738,-0.75676 -1.01468,0 -2.12201,0.68106 -2.45326,1.50887 -0.19134,0.47819 -0.63257,11.62006 -1.24683,31.484716 l -0.57651,31.30591 0.5775,14.20243 c 0.33059,8.13016 1.08414,15.09585 1.24603,15.50183 0.65402,1.64009 2.55946,2.01985 3.9297,0.78321 z m 11.68156,0 c 0.3697,-0.40018 0.73585,-0.91103 0.81368,-1.13522 0.0778,-0.22419 0.59182,-7.03446 1.1422,-15.13394 l 0.34586,-13.97798 -0.33987,-32.57671 c -0.25088,-24.047002 -1.08097,-32.034876 -1.34715,-32.671916 -0.45324,-1.08478 -1.75078,-1.77465 -2.92388,-1.55458 -1.27649,0.23947 -2.16321,1.42457 -2.33488,3.12054 -0.0775,0.76549 -0.5108,15.26257 -0.96292,32.215746 l -0.26075,31.19814 0.24885,13.25186 c 0.31931,17.0036 0.93621,16.30414 1.875,17.24293 1.05428,1.05428 2.78042,1.06402 3.74386,0.0211 z m 11.57237,0.0468 c 0.45955,-0.38669 0.91311,-1.10104 1.04994,-1.65364 0.13249,-0.53508 0.63129,-7.46178 1.10845,-15.39267 l 0.49338,-14.04561 -0.54894,-31.33043 c -0.46651,-26.625922 -0.98229,-31.068786 -1.34546,-31.759346 -1.21368,-2.30783 -4.65206,-1.95057 -5.40972,0.56209 -0.21022,0.69714 -0.56781,11.13524 -1.09595,31.991006 l -0.31621,31.61106 0.27681,12.57436 c 0.35825,16.27416 0.90208,16.10282 1.4185,16.84011 1.0043,1.43385 3.04683,1.71577 4.3692,0.60307 z m 34.94257,0.28789 c 1.02469,-0.52989 1.81044,-1.6934 1.98696,-2.94226 0.0801,-0.56676 0.50992,-7.1622 0.95512,-14.65652 l 0.28029,-24.73854 -0.29086,-27.38438 c -0.22493,-21.176884 -0.88253,-38.886356 -0.95892,-39.362416 -0.1825,-1.13732 -1.48744,-2.59504 -2.67348,-2.98646 -1.89314,-0.6248 -4.3663,0.9475 -4.69759,2.98646 -0.0774,0.47606 -0.47706,18.18914 -0.88824,39.362416 l -0.21844,38.62917 0.18904,12.96458 c 0.23469,16.09518 0.86696,15.90605 1.45573,16.80463 1.03575,1.58075 3.21513,2.17412 4.86039,1.32332 z m -92.31019,-0.66545 c 0.39414,-0.55367 0.68541,-3.11903 1.7874,-15.74271 l 0.28753,-14.89415 -0.25582,-13.94543 c -0.13939,-7.59872 -1.35512,-14.14186 -1.44106,-14.61062 -0.16291,-0.88853 -0.9847,-1.66125 -1.76675,-1.66125 -0.25055,0 -0.76643,0.26789 -1.1464,0.59531 l -0.69086,0.59531 -1.18872,14.41979 -0.34682,15.07461 0.233,13.3681 c 0.29287,16.80309 1.25092,16.45555 1.90538,17.11001 0.70724,0.70724 2.00886,0.55393 2.62312,-0.30897 z m -11.28904,-0.33073 c 0.27495,-0.4235 0.77327,-4.68061 1.72665,-14.75052 0.73709,-7.78536 0.8721,-14.47045 0.87168,-15.31309 -5.3e-4,-0.84264 -0.12836,-8.34964 -0.85596,-16.2249 -0.7276,-7.87525 -1.32292,-14.4784 -1.32292,-14.67366 0,-0.56862 -1.00337,-1.41335 -1.67878,-1.41335 -1.50064,0 -1.4691,-0.18469 -2.82338,16.53369 l -0.41252,15.67269 0.42997,14.82566 c 0.24023,8.28312 1.28039,15.03402 1.29079,15.06 0.0104,0.026 0.20602,0.23435 0.4347,0.46302 0.62461,0.62462 1.88024,0.52827 2.33977,-0.17954 z m -11.3838,-0.8684 c 0.22296,-0.22296 0.46883,-0.7885 0.54638,-1.25677 0.37285,-2.25135 1.73076,-26.49732 1.72287,-27.98816 -0.0149,-2.80821 -1.72776,-29.96558 -2.07207,-30.60854 -0.3688,-0.6887 -1.38616,-0.79444 -1.9753,-0.20531 -0.49943,0.49943 -0.4883,0.40171 -1.90611,16.73998 l -0.40575,14.21957 0.4057,12.90022 c 0.50139,15.9428 1.4137,15.72193 1.90616,16.21439 0.50391,0.50391 1.26542,0.49733 1.77812,-0.0154 z m -10.9773,-4.45762 c 0.16665,-0.2008 1.00868,-5.90434 1.87118,-12.67454 l 0.50985,-12.04488 -0.50224,-12.90292 c -0.4253,-10.92622 -1.63273,-12.71049 -2.07113,-13.14889 -0.41718,-0.41718 -0.61265,-0.45591 -1.06883,-0.21177 -0.30705,0.16433 -0.61771,0.56323 -0.69034,0.88645 -0.0726,0.32323 -0.72886,6.06455 -1.45827,12.75851 l -0.135585,12.30313 0.143465,12.03854 c 0.08025,6.73358 1.44555,12.43872 1.58177,12.76614 0.28247,0.67895 1.33702,0.81234 1.82013,0.23023 z m -10.32893,-9.24766 c 0.16105,-0.19405 0.84303,-3.83593 1.51552,-8.09305 l 0.164377,-7.60794 -0.171127,-7.96644 c -0.09367,-4.36051 -1.35819,-7.98925 -1.51552,-8.17883 -0.34466,-0.41529 -1.44403,-0.4562 -1.68717,-0.0628 -0.0958,0.15504 -0.64294,3.81621 -1.21583,8.13593 l -0.380142,7.85405 0.295462,7.40833 c 0.5263,4.07458 1.08084,7.73575 1.2323,8.13594 0.30187,0.79755 1.24482,0.99811 1.76213,0.37479 z"
        transform="translate(-55,31)"
        aria-label="SoundCloud icon path"/>
</svg>
